<mxfile host="app.diagrams.net" modified="2023-10-21T04:37:19.224Z" agent="Mozilla/5.0 (Windows NT 10.0; Win64; x64) AppleWebKit/537.36 (KHTML, like Gecko) Chrome/118.0.0.0 Safari/537.36" etag="Suw7YzBr2Z4eYWL379gh" version="22.0.6" type="device">
  <diagram name="Страница — 1" id="R3nnsmm92fOk1h1CbwDt">
    <mxGraphModel dx="2206" dy="1215" grid="1" gridSize="10" guides="1" tooltips="1" connect="1" arrows="1" fold="1" page="1" pageScale="1" pageWidth="827" pageHeight="1169" math="0" shadow="0">
      <root>
        <mxCell id="0" />
        <mxCell id="1" parent="0" />
        <mxCell id="ULTg3AKQBXa0MyeNa-kY-1" value="Сотрудник" style="shape=umlActor;verticalLabelPosition=bottom;verticalAlign=top;html=1;outlineConnect=0;" parent="1" vertex="1">
          <mxGeometry x="80" y="230" width="30" height="60" as="geometry" />
        </mxCell>
        <mxCell id="ULTg3AKQBXa0MyeNa-kY-2" value="Пользователь" style="shape=umlActor;verticalLabelPosition=bottom;verticalAlign=top;html=1;outlineConnect=0;" parent="1" vertex="1">
          <mxGeometry x="330" y="230" width="30" height="60" as="geometry" />
        </mxCell>
        <mxCell id="ULTg3AKQBXa0MyeNa-kY-7" style="edgeStyle=none;shape=connector;rounded=0;orthogonalLoop=1;jettySize=auto;html=1;labelBackgroundColor=default;strokeColor=default;align=center;verticalAlign=middle;fontFamily=Helvetica;fontSize=11;fontColor=default;endArrow=block;endFill=0;exitX=0.5;exitY=0.5;exitDx=0;exitDy=0;exitPerimeter=0;entryX=0.5;entryY=0.5;entryDx=0;entryDy=0;entryPerimeter=0;" parent="1" source="ULTg3AKQBXa0MyeNa-kY-1" target="ULTg3AKQBXa0MyeNa-kY-2" edge="1">
          <mxGeometry relative="1" as="geometry">
            <mxPoint x="120" y="460" as="sourcePoint" />
            <mxPoint x="380" y="514" as="targetPoint" />
          </mxGeometry>
        </mxCell>
        <mxCell id="ULTg3AKQBXa0MyeNa-kY-9" value="Администратор" style="shape=umlActor;verticalLabelPosition=bottom;verticalAlign=top;html=1;" parent="1" vertex="1">
          <mxGeometry x="80" y="390" width="30" height="60" as="geometry" />
        </mxCell>
        <mxCell id="ULTg3AKQBXa0MyeNa-kY-10" style="edgeStyle=none;shape=connector;rounded=0;orthogonalLoop=1;jettySize=auto;html=1;labelBackgroundColor=default;strokeColor=default;align=center;verticalAlign=middle;fontFamily=Helvetica;fontSize=11;fontColor=default;endArrow=block;endFill=0;exitX=0.5;exitY=0.5;exitDx=0;exitDy=0;exitPerimeter=0;entryX=0.5;entryY=0.5;entryDx=0;entryDy=0;entryPerimeter=0;" parent="1" source="ULTg3AKQBXa0MyeNa-kY-9" target="ULTg3AKQBXa0MyeNa-kY-2" edge="1">
          <mxGeometry relative="1" as="geometry">
            <mxPoint x="105" y="270" as="sourcePoint" />
            <mxPoint x="355" y="270" as="targetPoint" />
          </mxGeometry>
        </mxCell>
        <mxCell id="ULTg3AKQBXa0MyeNa-kY-11" value="" style="endArrow=none;html=1;rounded=0;exitX=0.5;exitY=0.5;exitDx=0;exitDy=0;exitPerimeter=0;entryX=0.017;entryY=0.65;entryDx=0;entryDy=0;entryPerimeter=0;" parent="1" source="ULTg3AKQBXa0MyeNa-kY-2" target="ULTg3AKQBXa0MyeNa-kY-12" edge="1">
          <mxGeometry width="50" height="50" relative="1" as="geometry">
            <mxPoint x="490" y="250" as="sourcePoint" />
            <mxPoint x="580" y="220" as="targetPoint" />
          </mxGeometry>
        </mxCell>
        <mxCell id="ULTg3AKQBXa0MyeNa-kY-12" value="Распознание сотрудника при входе на предприятие" style="ellipse;whiteSpace=wrap;html=1;" parent="1" vertex="1">
          <mxGeometry x="590" y="130" width="120" height="80" as="geometry" />
        </mxCell>
        <mxCell id="ULTg3AKQBXa0MyeNa-kY-13" value="Распознание сотрудников камерами на предприятии" style="ellipse;whiteSpace=wrap;html=1;" parent="1" vertex="1">
          <mxGeometry x="590" y="310" width="120" height="80" as="geometry" />
        </mxCell>
        <mxCell id="ULTg3AKQBXa0MyeNa-kY-14" value="Добавление сотрудника в БД" style="ellipse;whiteSpace=wrap;html=1;" parent="1" vertex="1">
          <mxGeometry x="460" y="480" width="120" height="80" as="geometry" />
        </mxCell>
        <mxCell id="ULTg3AKQBXa0MyeNa-kY-15" value="" style="endArrow=none;html=1;rounded=0;entryX=0;entryY=0.5;entryDx=0;entryDy=0;" parent="1" target="ULTg3AKQBXa0MyeNa-kY-13" edge="1">
          <mxGeometry width="50" height="50" relative="1" as="geometry">
            <mxPoint x="340" y="260" as="sourcePoint" />
            <mxPoint x="592" y="232" as="targetPoint" />
          </mxGeometry>
        </mxCell>
        <mxCell id="ULTg3AKQBXa0MyeNa-kY-16" value="" style="endArrow=none;html=1;rounded=0;entryX=0.5;entryY=0;entryDx=0;entryDy=0;" parent="1" target="ULTg3AKQBXa0MyeNa-kY-14" edge="1">
          <mxGeometry width="50" height="50" relative="1" as="geometry">
            <mxPoint x="340" y="260" as="sourcePoint" />
            <mxPoint x="602" y="242" as="targetPoint" />
          </mxGeometry>
        </mxCell>
        <mxCell id="ULTg3AKQBXa0MyeNa-kY-17" value="Создание фотографий сотрудника" style="ellipse;whiteSpace=wrap;html=1;" parent="1" vertex="1">
          <mxGeometry x="810" y="580" width="120" height="80" as="geometry" />
        </mxCell>
        <mxCell id="ULTg3AKQBXa0MyeNa-kY-19" value="Обучение нейронной сети" style="ellipse;whiteSpace=wrap;html=1;" parent="1" vertex="1">
          <mxGeometry x="360" y="680" width="120" height="80" as="geometry" />
        </mxCell>
        <mxCell id="ULTg3AKQBXa0MyeNa-kY-20" value="Обучающие фото&lt;br&gt;" style="ellipse;whiteSpace=wrap;html=1;" parent="1" vertex="1">
          <mxGeometry x="240" y="830" width="120" height="80" as="geometry" />
        </mxCell>
        <mxCell id="ULTg3AKQBXa0MyeNa-kY-21" value="Тестовые фото" style="ellipse;whiteSpace=wrap;html=1;" parent="1" vertex="1">
          <mxGeometry x="380" y="830" width="120" height="80" as="geometry" />
        </mxCell>
        <mxCell id="ULTg3AKQBXa0MyeNa-kY-22" value="ФИО сотрудника" style="ellipse;whiteSpace=wrap;html=1;" parent="1" vertex="1">
          <mxGeometry x="540" y="830" width="120" height="80" as="geometry" />
        </mxCell>
        <mxCell id="ULTg3AKQBXa0MyeNa-kY-23" value="Табельный номер сотрудника" style="ellipse;whiteSpace=wrap;html=1;" parent="1" vertex="1">
          <mxGeometry x="90" y="800" width="120" height="80" as="geometry" />
        </mxCell>
        <mxCell id="ULTg3AKQBXa0MyeNa-kY-24" style="rounded=0;orthogonalLoop=1;jettySize=auto;html=1;exitX=0;exitY=0.5;exitDx=0;exitDy=0;entryX=1;entryY=0;entryDx=0;entryDy=0;dashed=1;" parent="1" source="ULTg3AKQBXa0MyeNa-kY-19" target="ULTg3AKQBXa0MyeNa-kY-23" edge="1">
          <mxGeometry relative="1" as="geometry">
            <mxPoint x="250" y="710" as="sourcePoint" />
            <mxPoint x="313" y="732" as="targetPoint" />
          </mxGeometry>
        </mxCell>
        <mxCell id="ULTg3AKQBXa0MyeNa-kY-25" style="rounded=0;orthogonalLoop=1;jettySize=auto;html=1;exitX=0;exitY=1;exitDx=0;exitDy=0;entryX=0.5;entryY=0;entryDx=0;entryDy=0;dashed=1;" parent="1" source="ULTg3AKQBXa0MyeNa-kY-19" target="ULTg3AKQBXa0MyeNa-kY-20" edge="1">
          <mxGeometry relative="1" as="geometry">
            <mxPoint x="370" y="730" as="sourcePoint" />
            <mxPoint x="202" y="822" as="targetPoint" />
          </mxGeometry>
        </mxCell>
        <mxCell id="ULTg3AKQBXa0MyeNa-kY-26" style="rounded=0;orthogonalLoop=1;jettySize=auto;html=1;exitX=0.5;exitY=1;exitDx=0;exitDy=0;entryX=0.5;entryY=0;entryDx=0;entryDy=0;dashed=1;" parent="1" source="ULTg3AKQBXa0MyeNa-kY-19" target="ULTg3AKQBXa0MyeNa-kY-21" edge="1">
          <mxGeometry relative="1" as="geometry">
            <mxPoint x="380" y="740" as="sourcePoint" />
            <mxPoint x="212" y="832" as="targetPoint" />
          </mxGeometry>
        </mxCell>
        <mxCell id="ULTg3AKQBXa0MyeNa-kY-27" style="rounded=0;orthogonalLoop=1;jettySize=auto;html=1;exitX=1;exitY=1;exitDx=0;exitDy=0;entryX=0.5;entryY=0;entryDx=0;entryDy=0;dashed=1;" parent="1" source="ULTg3AKQBXa0MyeNa-kY-19" target="ULTg3AKQBXa0MyeNa-kY-22" edge="1">
          <mxGeometry relative="1" as="geometry">
            <mxPoint x="390" y="750" as="sourcePoint" />
            <mxPoint x="222" y="842" as="targetPoint" />
          </mxGeometry>
        </mxCell>
        <mxCell id="ULTg3AKQBXa0MyeNa-kY-28" style="rounded=0;orthogonalLoop=1;jettySize=auto;html=1;exitX=0.425;exitY=1.038;exitDx=0;exitDy=0;entryX=0.5;entryY=0;entryDx=0;entryDy=0;dashed=1;exitPerimeter=0;" parent="1" source="ULTg3AKQBXa0MyeNa-kY-14" target="ULTg3AKQBXa0MyeNa-kY-19" edge="1">
          <mxGeometry relative="1" as="geometry">
            <mxPoint x="400" y="760" as="sourcePoint" />
            <mxPoint x="232" y="852" as="targetPoint" />
          </mxGeometry>
        </mxCell>
        <mxCell id="ULTg3AKQBXa0MyeNa-kY-29" style="rounded=0;orthogonalLoop=1;jettySize=auto;html=1;exitX=1;exitY=1;exitDx=0;exitDy=0;entryX=0;entryY=0;entryDx=0;entryDy=0;dashed=1;" parent="1" source="ULTg3AKQBXa0MyeNa-kY-14" target="ULTg3AKQBXa0MyeNa-kY-17" edge="1">
          <mxGeometry relative="1" as="geometry">
            <mxPoint x="410" y="770" as="sourcePoint" />
            <mxPoint x="242" y="862" as="targetPoint" />
          </mxGeometry>
        </mxCell>
        <mxCell id="ULTg3AKQBXa0MyeNa-kY-30" value="Добавление ФИО сотрудника" style="ellipse;whiteSpace=wrap;html=1;" parent="1" vertex="1">
          <mxGeometry x="730" y="710" width="120" height="80" as="geometry" />
        </mxCell>
        <mxCell id="ULTg3AKQBXa0MyeNa-kY-31" value="Добавление табельного номера сотрудника" style="ellipse;whiteSpace=wrap;html=1;" parent="1" vertex="1">
          <mxGeometry x="970" y="710" width="120" height="80" as="geometry" />
        </mxCell>
        <mxCell id="ULTg3AKQBXa0MyeNa-kY-32" style="rounded=0;orthogonalLoop=1;jettySize=auto;html=1;exitX=0;exitY=1;exitDx=0;exitDy=0;entryX=0.5;entryY=0;entryDx=0;entryDy=0;dashed=1;" parent="1" source="ULTg3AKQBXa0MyeNa-kY-17" target="ULTg3AKQBXa0MyeNa-kY-30" edge="1">
          <mxGeometry relative="1" as="geometry">
            <mxPoint x="572" y="558" as="sourcePoint" />
            <mxPoint x="838" y="602" as="targetPoint" />
          </mxGeometry>
        </mxCell>
        <mxCell id="ULTg3AKQBXa0MyeNa-kY-33" style="rounded=0;orthogonalLoop=1;jettySize=auto;html=1;exitX=1;exitY=1;exitDx=0;exitDy=0;entryX=0;entryY=0;entryDx=0;entryDy=0;dashed=1;" parent="1" source="ULTg3AKQBXa0MyeNa-kY-17" target="ULTg3AKQBXa0MyeNa-kY-31" edge="1">
          <mxGeometry relative="1" as="geometry">
            <mxPoint x="582" y="568" as="sourcePoint" />
            <mxPoint x="848" y="612" as="targetPoint" />
          </mxGeometry>
        </mxCell>
        <mxCell id="v9rZIXru82J5WcHvp9ef-2" value="Вывод фото с камеры в систему" style="ellipse;whiteSpace=wrap;html=1;" vertex="1" parent="1">
          <mxGeometry x="860" y="130" width="120" height="80" as="geometry" />
        </mxCell>
        <mxCell id="v9rZIXru82J5WcHvp9ef-3" value="Преобразование фото к необходимому формату" style="ellipse;whiteSpace=wrap;html=1;" vertex="1" parent="1">
          <mxGeometry x="1121" y="130" width="120" height="80" as="geometry" />
        </mxCell>
        <mxCell id="v9rZIXru82J5WcHvp9ef-4" value="Преобразование фото к необходимому формату" style="ellipse;whiteSpace=wrap;html=1;" vertex="1" parent="1">
          <mxGeometry x="1090" y="570" width="120" height="80" as="geometry" />
        </mxCell>
        <mxCell id="v9rZIXru82J5WcHvp9ef-5" style="rounded=0;orthogonalLoop=1;jettySize=auto;html=1;exitX=1;exitY=0.5;exitDx=0;exitDy=0;entryX=0;entryY=0.5;entryDx=0;entryDy=0;dashed=1;" edge="1" parent="1" source="ULTg3AKQBXa0MyeNa-kY-17" target="v9rZIXru82J5WcHvp9ef-4">
          <mxGeometry relative="1" as="geometry">
            <mxPoint x="870" y="490" as="sourcePoint" />
            <mxPoint x="1136" y="534" as="targetPoint" />
          </mxGeometry>
        </mxCell>
        <mxCell id="v9rZIXru82J5WcHvp9ef-6" style="rounded=0;orthogonalLoop=1;jettySize=auto;html=1;exitX=1;exitY=0.5;exitDx=0;exitDy=0;entryX=0;entryY=0.5;entryDx=0;entryDy=0;dashed=1;" edge="1" parent="1" source="ULTg3AKQBXa0MyeNa-kY-12" target="v9rZIXru82J5WcHvp9ef-2">
          <mxGeometry relative="1" as="geometry">
            <mxPoint x="572" y="558" as="sourcePoint" />
            <mxPoint x="838" y="602" as="targetPoint" />
          </mxGeometry>
        </mxCell>
        <mxCell id="v9rZIXru82J5WcHvp9ef-7" style="rounded=0;orthogonalLoop=1;jettySize=auto;html=1;exitX=1;exitY=0.5;exitDx=0;exitDy=0;entryX=0;entryY=0.5;entryDx=0;entryDy=0;dashed=1;" edge="1" parent="1" source="v9rZIXru82J5WcHvp9ef-2" target="v9rZIXru82J5WcHvp9ef-3">
          <mxGeometry relative="1" as="geometry">
            <mxPoint x="582" y="568" as="sourcePoint" />
            <mxPoint x="848" y="612" as="targetPoint" />
          </mxGeometry>
        </mxCell>
        <mxCell id="v9rZIXru82J5WcHvp9ef-8" value="Вывод фото с камеры в систему" style="ellipse;whiteSpace=wrap;html=1;" vertex="1" parent="1">
          <mxGeometry x="860" y="310" width="120" height="80" as="geometry" />
        </mxCell>
        <mxCell id="v9rZIXru82J5WcHvp9ef-9" value="Преобразование фото к необходимому формату" style="ellipse;whiteSpace=wrap;html=1;" vertex="1" parent="1">
          <mxGeometry x="1121" y="310" width="120" height="80" as="geometry" />
        </mxCell>
        <mxCell id="v9rZIXru82J5WcHvp9ef-10" style="rounded=0;orthogonalLoop=1;jettySize=auto;html=1;exitX=1;exitY=0.5;exitDx=0;exitDy=0;entryX=0;entryY=0.5;entryDx=0;entryDy=0;dashed=1;" edge="1" parent="1" source="v9rZIXru82J5WcHvp9ef-8" target="v9rZIXru82J5WcHvp9ef-9">
          <mxGeometry relative="1" as="geometry">
            <mxPoint x="582" y="748" as="sourcePoint" />
            <mxPoint x="848" y="792" as="targetPoint" />
          </mxGeometry>
        </mxCell>
        <mxCell id="v9rZIXru82J5WcHvp9ef-11" style="rounded=0;orthogonalLoop=1;jettySize=auto;html=1;exitX=1;exitY=0.5;exitDx=0;exitDy=0;entryX=0;entryY=0.5;entryDx=0;entryDy=0;dashed=1;" edge="1" parent="1">
          <mxGeometry relative="1" as="geometry">
            <mxPoint x="720" y="180" as="sourcePoint" />
            <mxPoint x="870" y="180" as="targetPoint" />
          </mxGeometry>
        </mxCell>
        <mxCell id="v9rZIXru82J5WcHvp9ef-12" style="rounded=0;orthogonalLoop=1;jettySize=auto;html=1;exitX=1;exitY=0.5;exitDx=0;exitDy=0;entryX=0;entryY=0.5;entryDx=0;entryDy=0;dashed=1;" edge="1" parent="1" source="ULTg3AKQBXa0MyeNa-kY-13" target="v9rZIXru82J5WcHvp9ef-8">
          <mxGeometry relative="1" as="geometry">
            <mxPoint x="710" y="360" as="sourcePoint" />
            <mxPoint x="860" y="360" as="targetPoint" />
          </mxGeometry>
        </mxCell>
      </root>
    </mxGraphModel>
  </diagram>
</mxfile>
